<svg xmlns="http://www.w3.org/2000/svg" viewBox="0 0 2048 2048" width="2048" height="2048">
<defs>
 <linearGradient id="steel" x1="0" y1="0" x2="1" y2="1"><stop offset="0" stop-color="#667278"/><stop offset=".5" stop-color="#344046"/><stop offset="1" stop-color="#151c20"/></linearGradient>
 <linearGradient id="panel" x1="0" y1="0" x2="0" y2="1"><stop stop-color="#3d4a50"/><stop offset="1" stop-color="#141b1f"/></linearGradient>
 <radialGradient id="amber"><stop stop-color="#ffd47a"/><stop offset=".35" stop-color="#f0a33c"/><stop offset="1" stop-color="#f0a33c" stop-opacity="0"/></radialGradient>
 <radialGradient id="cyan"><stop stop-color="#9df6f8"/><stop offset=".35" stop-color="#59cbd1"/><stop offset="1" stop-color="#59cbd1" stop-opacity="0"/></radialGradient>
 <filter id="blur"><feGaussianBlur stdDeviation="24"/></filter>
</defs>
<g id="contact_shadow"><ellipse cx="1030" cy="1650" rx="625" ry="178" fill="#020405" opacity=".5"/><ellipse cx="1030" cy="1612" rx="455" ry="108" fill="#000" opacity=".4"/></g>
<g id="base_ground"><path d="M340 1480 1015 1235 1715 1485 1030 1775Z" fill="#2d363a"/><path d="M340 1480 1030 1775 1030 1842 340 1552Z" fill="#151b1e"/><path d="M1030 1775 1715 1485 1715 1553 1030 1842Z" fill="#0e1417"/><path d="M435 1486 1016 1276 1610 1490 1028 1733Z" fill="#394247"/><path d="M470 1510 1025 1722" stroke="#d78c38" stroke-width="10" opacity=".22"/><path d="M1540 1515 1060 1698" stroke="#77d4d9" stroke-width="8" opacity=".15"/></g>
<g id="building_back"><path d="M610 880 1015 728 1430 880 1016 1036Z" fill="url(#steel)"/><path d="M610 880 1016 1036 1016 1462 610 1305Z" fill="#303b40"/><path d="M1016 1036 1430 880 1430 1305 1016 1462Z" fill="#172126"/><path d="M680 930 970 1040 970 1370 680 1258Z" fill="#222c31"/><path d="M1065 1040 1360 927 1360 1260 1065 1375Z" fill="#11191d"/></g>
<g id="roof_static"><path d="M565 840 1016 672 1470 842 1016 1012Z" fill="url(#steel)"/><path d="M565 840 1016 1012 1016 1064 565 892Z" fill="#283238"/><path d="M1016 1012 1470 842 1470 895 1016 1064Z" fill="#141c20"/><path d="M690 807 1016 692 1345 808" fill="none" stroke="#d4dfe2" stroke-width="10" opacity=".13"/></g>
<g id="building_main"><path d="M680 1002 1016 1126 1362 996 1362 1334 1017 1472 680 1338Z" fill="url(#panel)"/><path d="M680 1002 1016 1126 1017 1472 680 1338Z" fill="#3a464b"/><path d="M1016 1126 1362 996 1362 1334 1017 1472Z" fill="#1c272c"/><path d="M735 1055 965 1140 965 1315 735 1228Z" fill="#10171a" stroke="#69777c" stroke-width="10"/><path d="M1080 1140 1305 1054 1305 1238 1080 1325Z" fill="#0c1316" stroke="#4a585d" stroke-width="10"/></g>
<g id="machine_static"><path d="M835 1130 1015 1065 1195 1132 1015 1200Z" fill="#68757a"/><path d="M835 1130 1015 1200 1015 1340 835 1270Z" fill="#374348"/><path d="M1015 1200 1195 1132 1195 1272 1015 1340Z" fill="#202b30"/><rect x="944" y="1030" width="142" height="118" rx="20" fill="#29353a"/><rect x="964" y="1050" width="102" height="54" rx="12" fill="#111a1e" stroke="#68d8dd" stroke-opacity=".35" stroke-width="7"/></g>
<g id="machine_moving_a"><path d="M825 1070 885 1010 930 1045 880 1102Z" fill="#59676c" stroke="#222b30" stroke-width="12"/><circle cx="870" cy="1060" r="34" fill="#1d272c" stroke="#7c8a8f" stroke-width="9"/><path d="M885 1010 945 930 982 955 930 1045Z" fill="#46545a" stroke="#222b30" stroke-width="12"/><circle cx="962" cy="947" r="31" fill="#1d272c" stroke="#7c8a8f" stroke-width="9"/><path d="M982 955 1050 920 1082 960 1012 995Z" fill="#5f6c72" stroke="#222b30" stroke-width="11"/><path d="M1065 930 1120 944 1100 1000 1044 980Z" fill="#8b9aa0"/></g>
<g id="machine_moving_b"><path d="M1168 1088 1250 1040 1280 1080 1200 1130Z" fill="#59676c" stroke="#222b30" stroke-width="11"/><circle cx="1192" cy="1110" r="31" fill="#1d272c" stroke="#7c8a8f" stroke-width="9"/><path d="M1250 1040 1320 970 1350 1008 1280 1080Z" fill="#46545a" stroke="#222b30" stroke-width="11"/><path d="M1320 970 1395 952 1405 1002 1350 1008Z" fill="#657278" stroke="#222b30" stroke-width="10"/><path d="M1392 947 1448 970 1424 1020 1372 996Z" fill="#97a4a8"/></g>
<g id="conveyor_static"><path d="M560 1245 850 1140 940 1175 645 1285Z" fill="#20292d" stroke="#56646a" stroke-width="12"/><path d="M585 1248 832 1158" stroke="#9ba6aa" stroke-width="18" stroke-linecap="round"/><g fill="#d39745"><rect x="646" y="1184" width="46" height="30" rx="7" transform="rotate(-20 669 1199)"/><rect x="720" y="1158" width="46" height="30" rx="7" transform="rotate(-20 743 1173)"/><rect x="794" y="1132" width="46" height="30" rx="7" transform="rotate(-20 817 1147)"/></g></g>
<g id="props_static"><path d="M420 1370 575 1312 690 1355 532 1417Z" fill="#60452d"/><path d="M420 1370 532 1417 532 1518 420 1470Z" fill="#423020"/><path d="M532 1417 690 1355 690 1458 532 1518Z" fill="#2e221a"/><path d="M1420 1340 1515 1305 1585 1332 1490 1368Z" fill="#4b585d"/><path d="M1420 1340 1490 1368 1490 1465 1420 1437Z" fill="#263136"/><path d="M1490 1368 1585 1332 1585 1428 1490 1465Z" fill="#172126"/></g>
<g id="sign_static"><path d="M812 862 1017 790 1225 865 1017 944Z" fill="#172126" stroke="#6a787d" stroke-width="10"/><path d="M875 864 1017 815 1160 866 1017 920Z" fill="#263237"/></g>
<g id="emissive_static"><ellipse cx="1040" cy="1135" rx="275" ry="210" fill="url(#amber)" opacity=".28" filter="url(#blur)"/><ellipse cx="1280" cy="1050" rx="170" ry="130" fill="url(#cyan)" opacity=".22" filter="url(#blur)"/><circle cx="1050" cy="920" r="18" fill="#ffd16c"/><circle cx="1400" cy="980" r="14" fill="#7fe3e7"/><path d="M760 1120 935 1185" stroke="#ffd16c" stroke-width="9" opacity=".33"/><path d="M1110 1178 1285 1112" stroke="#7fe3e7" stroke-width="8" opacity=".28"/></g>
<g id="emissive_pulse"><circle cx="1050" cy="920" r="55" fill="none" stroke="#f3a53d" stroke-width="10" opacity=".28"/><circle cx="1400" cy="980" r="45" fill="none" stroke="#6bd7dd" stroke-width="8" opacity=".22"/></g>
<g id="sign_glow"><path d="M916 866 1017 830 1118 867 1017 905Z" fill="#e6a24a" opacity=".55"/></g>
<g id="foreground_occluder"><path d="M410 1548 1030 1805 1672 1540" fill="none" stroke="#11181b" stroke-width="34" opacity=".74"/><path d="M520 1580 1028 1780" stroke="#cf8a38" stroke-width="8" opacity=".18"/></g>
</svg>
